<?xml version="1.0" encoding="UTF-8" standalone="no"?>
<!DOCTYPE svg PUBLIC "-//W3C//DTD SVG 1.1//EN" "http://www.w3.org/Graphics/SVG/1.1/DTD/svg11.dtd">
<svg width="100%" height="100%" viewBox="0 0 126 112" version="1.1" xmlns="http://www.w3.org/2000/svg" xmlns:xlink="http://www.w3.org/1999/xlink" xml:space="preserve" xmlns:serif="http://www.serif.com/" style="fill-rule:evenodd;clip-rule:evenodd;stroke-linejoin:round;stroke-miterlimit:2;">
    <g transform="matrix(1,0,0,1,-11391.6,-6222.09)">
        <g transform="matrix(1,0,0,6.16458,11127.6,1)">
            <g transform="matrix(1,0,0,0.162217,-8647.72,130.479)">
                <path d="M8968.7,5527.84L8959.14,5527.84L8959.14,5416.74L8968.7,5416.74L8968.7,5485.83L8977.01,5485.83C8980.67,5485.83 8983.85,5486.44 8986.54,5487.66C8989.24,5488.88 8991.31,5490.61 8992.77,5492.85C8994.22,5495.1 8994.95,5497.75 8994.95,5500.82C8994.95,5503.85 8994.22,5506.49 8992.77,5508.76C8991.31,5511.02 8989.24,5512.75 8986.54,5513.95C8983.85,5515.15 8980.67,5515.75 8977.01,5515.75L8968.7,5515.75L8968.7,5527.84ZM9019.76,5527.84C9016.5,5527.84 9013.34,5527.4 9010.29,5526.51C9007.24,5525.63 9004.8,5524.48 9002.95,5523.06L9006.19,5515.86C9007.96,5517.16 9010.07,5518.2 9012.51,5518.99C9014.94,5519.78 9017.38,5520.17 9019.82,5520.17C9022.53,5520.17 9024.54,5519.77 9025.84,5518.96C9027.14,5518.15 9027.79,5517.08 9027.79,5515.75C9027.79,5514.76 9027.4,5513.95 9026.64,5513.3C9025.87,5512.65 9024.89,5512.13 9023.68,5511.73C9022.49,5511.34 9020.86,5510.91 9018.82,5510.44C9015.67,5509.69 9013.09,5508.94 9011.09,5508.19C9009.08,5507.45 9007.36,5506.25 9005.93,5504.6C9004.49,5502.94 9003.77,5500.74 9003.77,5497.99C9003.77,5495.59 9004.42,5493.41 9005.72,5491.47C9007.02,5489.52 9008.98,5487.98 9011.59,5486.84C9014.21,5485.69 9017.4,5485.13 9021.18,5485.13C9023.81,5485.13 9026.39,5485.44 9028.91,5486.07C9031.42,5486.7 9033.63,5487.6 9035.51,5488.78L9032.57,5496.04C9028.75,5493.88 9024.93,5492.8 9021.12,5492.8C9018.44,5492.8 9016.47,5493.23 9015.19,5494.09C9013.91,5494.96 9013.27,5496.1 9013.27,5497.52C9013.27,5498.93 9014.01,5499.98 9015.48,5500.67C9016.96,5501.36 9019.21,5502.04 9022.24,5502.71C9025.39,5503.45 9027.96,5504.2 9029.97,5504.95C9031.98,5505.7 9033.7,5506.88 9035.13,5508.49C9036.57,5510.1 9037.28,5512.28 9037.28,5515.04C9037.28,5517.4 9036.63,5519.55 9035.31,5521.5C9033.99,5523.44 9032.01,5524.99 9029.38,5526.13C9026.74,5527.27 9023.54,5527.84 9019.76,5527.84ZM8934.09,5527.84C8929.88,5527.84 8926.08,5526.93 8922.67,5525.1C8919.27,5523.27 8916.6,5520.73 8914.65,5517.49C8912.7,5514.24 8911.73,5510.57 8911.73,5506.48C8911.73,5502.39 8912.7,5498.73 8914.65,5495.48C8916.6,5492.23 8919.27,5489.7 8922.67,5487.87C8926.08,5486.04 8929.9,5485.13 8934.15,5485.13C8937.73,5485.13 8940.96,5485.75 8943.85,5487.01C8946.75,5488.27 8949.18,5490.08 8951.14,5492.44L8945.01,5498.11C8942.21,5494.88 8938.75,5493.27 8934.62,5493.27C8932.07,5493.27 8929.78,5493.83 8927.78,5494.95C8925.77,5496.07 8924.21,5497.63 8923.09,5499.64C8921.97,5501.65 8921.41,5503.93 8921.41,5506.48C8921.41,5509.04 8921.97,5511.32 8923.09,5513.33C8924.21,5515.33 8925.77,5516.9 8927.78,5518.02C8929.78,5519.14 8932.07,5519.7 8934.62,5519.7C8938.75,5519.7 8942.21,5518.07 8945.01,5514.8L8951.14,5520.47C8949.18,5522.86 8946.74,5524.69 8943.83,5525.95C8940.92,5527.21 8937.67,5527.84 8934.09,5527.84ZM8976.48,5507.96C8979.35,5507.96 8981.54,5507.34 8983.03,5506.1C8984.53,5504.86 8985.27,5503.1 8985.27,5500.82C8985.27,5498.5 8984.53,5496.72 8983.03,5495.48C8981.54,5494.24 8979.35,5493.62 8976.48,5493.62L8968.7,5493.62L8968.7,5507.96L8976.48,5507.96ZM9002.71,5459.46C8998.42,5459.46 8994.56,5458.53 8991.12,5456.68C8987.68,5454.84 8984.98,5452.29 8983.03,5449.04C8981.09,5445.8 8980.11,5442.15 8980.11,5438.1C8980.11,5434.05 8981.09,5430.4 8983.03,5427.15C8984.98,5423.91 8987.68,5421.36 8991.12,5419.51C8994.56,5417.66 8998.42,5416.74 9002.71,5416.74C9007,5416.74 9010.85,5417.66 9014.27,5419.51C9017.7,5421.36 9020.39,5423.91 9022.36,5427.15C9024.33,5430.4 9025.31,5434.05 9025.31,5438.1C9025.31,5442.15 9024.33,5445.8 9022.36,5449.04C9020.39,5452.29 9017.7,5454.84 9014.27,5456.68C9010.85,5458.53 9007,5459.46 9002.71,5459.46ZM8924.95,5424.53L8911.73,5424.53L8911.73,5416.74L8947.72,5416.74L8947.72,5424.53L8934.5,5424.53L8934.5,5458.04L8924.95,5458.04L8924.95,5424.53ZM9002.71,5451.31C9005.15,5451.31 9007.35,5450.75 9009.32,5449.63C9011.29,5448.51 9012.83,5446.95 9013.95,5444.94C9015.07,5442.94 9015.63,5440.65 9015.63,5438.1C9015.63,5435.54 9015.07,5433.26 9013.95,5431.26C9012.83,5429.25 9011.29,5427.69 9009.32,5426.56C9007.35,5425.44 9005.15,5424.88 9002.71,5424.88C9000.27,5424.88 8998.07,5425.44 8996.1,5426.56C8994.14,5427.69 8992.59,5429.25 8991.47,5431.26C8990.35,5433.26 8989.79,5435.54 8989.79,5438.1C8989.79,5440.65 8990.35,5442.94 8991.47,5444.94C8992.59,5446.95 8994.14,5448.51 8996.1,5449.63C8998.07,5450.75 9000.27,5451.31 9002.71,5451.31Z" style="fill:url(#_Linear1);fill-rule:nonzero;"/>
            </g>
        </g>
    </g>
    <defs>
        <linearGradient id="_Linear1" x1="0" y1="0" x2="1" y2="0" gradientUnits="userSpaceOnUse" gradientTransform="matrix(126.089,111.1,-111.1,126.089,8911.2,5416.74)"><stop offset="0" style="stop-color:rgb(15,81,149);stop-opacity:1"/><stop offset="1" style="stop-color:rgb(36,162,202);stop-opacity:1"/></linearGradient>
    </defs>
</svg>
